<svg width="16" height="23" viewBox="0 0 16 23" fill="none" xmlns="http://www.w3.org/2000/svg">
<path d="M7.325 0.287454C2.975 0.549954 0.6875 3.02495 0.5 7.48745H4.8875C4.925 5.94995 5.825 4.78745 7.4 4.59995C8.975 4.44995 10.475 4.82495 10.925 5.87495C11.4125 7.03745 10.325 8.38745 9.8 8.94995C8.825 9.99995 7.25 10.7875 6.425 11.9125C5.6375 13.0375 5.4875 14.5 5.4125 16.3H9.275C9.3125 15.1375 9.3875 14.05 9.9125 13.3375C10.775 12.175 12.05 11.65 13.1 10.7125C14.1125 9.84995 15.2 8.79995 15.35 7.14995C15.9875 2.31245 12.0125 -0.0125459 7.325 0.287454Z" fill="#8168F0"/>
<path d="M7.4375 22.75C8.78369 22.75 9.875 21.6754 9.875 20.35C9.875 19.0245 8.78369 17.95 7.4375 17.95C6.09131 17.95 5 19.0245 5 20.35C5 21.6754 6.09131 22.75 7.4375 22.75Z" fill="#8168F0"/>
</svg>
