<svg width="25" height="24" fill="none" xmlns="http://www.w3.org/2000/svg">
  <path fill-rule="evenodd" clip-rule="evenodd" d="M12.9872 13.5138.3916 21.3132a.8269.8269 0 0 0 .8706 1.4059l12.6925-7.8594c2.1924.4001 3.8757.2834 5.1-.224 1.3197-.547 2.0643-1.5366 2.2605-2.6558.3664-2.0903-1.2542-4.4924-3.679-4.5374-1.9388-.0359-3.1208 1.2324-3.7753 2.5804-.5595 1.1522-.8045 2.4794-.8737 3.4909Zm1.678-.211c1.7845.2757 2.9892.1232 3.7563-.1947.8288-.3435 1.1721-.8843 1.2649-1.4137.2115-1.2068-.7856-2.5745-2.0808-2.5985-1.0373-.0192-1.751.6069-2.2572 1.6493-.3897.8027-.5985 1.7565-.6832 2.5576Z" fill="#DF9AFF"/>
  <path fill-rule="evenodd" clip-rule="evenodd" d="M7.2413 8.102.1733 21.2127a.8269.8269 0 1 0 1.4555.7847L8.7668 8.757c2.082-.8179 3.4552-1.8072 4.2294-2.8868.8325-1.1609.943-2.3944.5193-3.4487C12.724.4525 10.08-.7332 7.9964.5078c-1.666.9923-2.001 2.6934-1.846 4.1838.1318 1.2663.6187 2.5156 1.091 3.4103ZM8.564 7.0535c1.6615-.7072 2.6045-1.4723 3.0884-2.147.5229-.7291.5292-1.3697.3287-1.8683-.4569-1.1368-2.0255-1.7727-3.1385-1.1098-.8913.531-1.1673 1.4393-1.0474 2.592.0924.8875.4182 1.8079.7688 2.5331Z" fill="#DF9AFF"/>
  <path fill-rule="evenodd" clip-rule="evenodd" d="m15.5602 20.1253-14.7854.9338a.8268.8268 0 1 0 .1042 1.6503l14.8991-.9409c1.7443 1.3872 3.2835 2.0785 4.6024 2.2088 1.4216.1404 2.5451-.3808 3.2461-1.275 1.3093-1.6701 1.0139-4.5527-1.1028-5.7364-1.6925-.9465-3.3331-.3859-4.5462.4938-1.0369.7519-1.8792 1.8065-2.4174 2.6656Zm1.579.6057c1.4433 1.0851 2.5774 1.5191 3.4038 1.6007.8928.0881 1.4507-.2267 1.7822-.6496.756-.9643.5221-2.6406-.6086-3.2729-.9054-.5064-1.8301-.2911-2.7683.3892-.7223.5238-1.3564 1.2662-1.8091 1.9326Z" fill="#DF9AFF"/>
</svg>
