<svg width="158" height="47" viewBox="0 0 158 47" fill="none" xmlns="http://www.w3.org/2000/svg">
<path d="M84.2668 8.72689L88.1487 5.83618H75.1255V23.1176H88.1487V20.2269H78.8196V15.828H86.7713V12.9373H78.8196V8.72689H84.2668Z" fill="white"/>
<path d="M65.2959 12.5602H60.7879V8.72689H67.9882L71.8701 5.83618H57.0938V23.1176H64.8576C69.1778 23.1176 71.6823 21.1695 71.6823 17.7132C71.6823 14.3826 69.4283 12.5602 65.2959 12.5602ZM64.6698 20.2269H60.7879V15.4509H64.6698C67.049 15.4509 68.1134 16.2679 68.1134 17.8389C68.1134 19.4728 66.9238 20.2269 64.6698 20.2269Z" fill="white"/>
<path d="M98.6679 5.83618H91.5928V23.1176H95.2869V18.216H98.6679C103.176 18.216 105.994 15.828 105.994 11.9947C105.994 8.22416 103.176 5.83618 98.6679 5.83618ZM98.6053 15.3253H95.2869V8.72689H98.6053C100.985 8.72689 102.299 9.92088 102.299 12.0575C102.299 14.1941 100.985 15.3253 98.6053 15.3253Z" fill="white"/>
<path d="M50.7069 19.3471C49.7678 19.8499 48.6408 20.1641 47.5137 20.1641C44.1953 20.1641 41.7534 17.7761 41.7534 14.4455C41.7534 11.1149 44.1953 8.72694 47.5137 8.72694C48.766 8.72694 49.893 9.10399 50.8948 9.79524L53.5871 7.84716L53.3993 7.72147C51.834 6.33896 49.7678 5.64771 47.3885 5.64771C44.8214 5.64771 42.5048 6.52749 40.8143 8.09852C39.1237 9.66956 38.1846 11.9319 38.1846 14.3827C38.1846 16.8963 39.1237 19.1586 40.7517 20.7925C42.4422 22.4264 44.7588 23.369 47.3259 23.369C50.0182 23.369 52.3349 22.4264 53.9002 20.7297C52.6479 19.8499 51.5209 18.9701 51.5209 18.9701L50.7069 19.3471Z" fill="white"/>
<path d="M29.6068 14.4455C29.6068 13.5658 29.5442 12.686 29.3563 11.869L26.2884 14.1313C26.2884 14.257 26.2884 14.3199 26.2884 14.4455C26.2884 20.5412 21.342 25.5056 15.2687 25.5056C9.19532 25.5056 4.24898 20.5412 4.24898 14.4455C4.24898 8.34991 9.19532 3.44828 15.2687 3.44828C17.5853 3.44828 19.7141 4.13953 21.4672 5.39636L24.2222 3.32259C21.7803 1.31166 18.7123 0.117676 15.2687 0.117676C7.37957 0.117676 0.993164 6.52751 0.993164 14.4455C0.993164 22.3636 7.37957 28.7734 15.2687 28.7734C23.1578 28.7734 29.6068 22.3636 29.6068 14.4455Z" fill="white"/>
<path d="M26.6017 5.71045C27.2905 6.59023 27.854 7.53285 28.2923 8.53832L15.269 18.1531L9.82178 14.7596V10.6121L15.269 14.0055L26.6017 5.71045Z" fill="white"/>
<path d="M49.9557 38.6395H42.004V43.2897H51.0827V46.1176H38.936V28.8362H50.8323V31.6641H42.004V35.8116H49.8931V38.6395H49.9557Z" fill="white"/>
<path d="M63.2291 28.8362L70.3043 46.1176H67.0485L65.4205 42.0329H57.5315L55.9035 46.1176H52.7729L59.7229 28.8362H63.2291ZM58.6585 39.1422H64.2935L61.476 32.0411L58.6585 39.1422Z" fill="white"/>
<path d="M85.0184 31.6641H75.8771V46.1176H72.8091V28.8362H88.0864V46.1176H85.0184V31.6641Z" fill="white"/>
<path d="M105.242 31.6641H99.419V46.1176H96.351V31.6641H90.6533V28.8362H105.242V31.6641Z" fill="white"/>
<path d="M118.766 38.6395H110.877V43.2897H119.956V46.1176H107.809V28.8362H119.705V31.6641H110.877V35.8116H118.766V38.6395Z" fill="white"/>
<path d="M126.718 46.1176H123.65V28.8362H126.718V36.063H129.285L134.795 28.8362H138.552L131.977 37.0684L139.616 46.1176H135.671L129.41 38.6395H126.655V46.1176H126.718Z" fill="white"/>
<path d="M150.698 28.8362L157.773 46.1176H154.518L152.89 42.0329H145.001L143.373 46.1176H140.242L147.192 28.8362H150.698ZM146.128 39.1422H151.763L148.945 32.0411L146.128 39.1422Z" fill="white"/>
</svg>
